<svg width="45" height="45" viewBox="0 0 45 45" xmlns="http://www.w3.org/2000/svg" xmlns:xlink="http://www.w3.org/1999/xlink"><title>eh</title><desc>Created using Figma</desc><use xlink:href="#a" fill="#FFF"/><use xlink:href="#b" transform="translate(14 16)" fill="#FFF"/><use xlink:href="#b" transform="translate(26 16)" fill="#FFF"/><use xlink:href="#c" transform="translate(14 29.5)" fill="#FFF"/><defs><path id="a" fill-rule="evenodd" d="M22.5 42C33.27 42 42 33.27 42 22.5S33.27 3 22.5 3 3 11.73 3 22.5 11.73 42 22.5 42zm0 3C34.926 45 45 34.926 45 22.5S34.926 0 22.5 0 0 10.074 0 22.5 10.074 45 22.5 45z"/><path id="b" d="M4 2.5C4 3.88 3.105 5 2 5S0 3.88 0 2.5.895 0 2 0s2 1.12 2 2.5z"/><path id="c" fill-rule="evenodd" d="M17 3H0V0h17v3z"/></defs></svg>