<svg width="45" height="45" viewBox="0 0 45 45" xmlns="http://www.w3.org/2000/svg" xmlns:xlink="http://www.w3.org/1999/xlink"><title>Group</title><desc>Created using Figma</desc><use xlink:href="#a" fill="#FFF"/><use xlink:href="#b" transform="translate(8.74 27.19)" fill="#FFF"/><use xlink:href="#c" transform="translate(14 14)" fill="#FFF"/><use xlink:href="#c" transform="translate(26 14)" fill="#FFF"/><defs><path id="a" fill-rule="evenodd" d="M22.5 42C33.27 42 42 33.27 42 22.5S33.27 3 22.5 3 3 11.73 3 22.5 11.73 42 22.5 42zm0 3C34.926 45 45 34.926 45 22.5S34.926 0 22.5 0 0 10.074 0 22.5 10.074 45 22.5 45z"/><path id="b" fill-rule="evenodd" d="M10.59 9.838C5.706 8.51 1.967 4.678 0 1.626L2.521 0c1.736 2.691 4.941 5.878 8.855 6.943 3.732 1.015 8.493.203 13.753-5.839l2.263 1.97c-5.85 6.72-11.738 8.142-16.803 6.764z"/><path id="c" d="M4 4.5C4 6.985 3.105 9 2 9S0 6.985 0 4.5.895 0 2 0s2 2.015 2 4.5z"/></defs></svg>