<svg width="45" height="45" viewBox="0 0 45 45" xmlns="http://www.w3.org/2000/svg" xmlns:xlink="http://www.w3.org/1999/xlink"><title>sad</title><desc>Created using Figma</desc><use xlink:href="#a" fill="#FFF"/><use xlink:href="#b" transform="matrix(1 0 0 -1 13.72 34.79)" fill="#FFF"/><use xlink:href="#c" transform="scale(-1 1) rotate(19.162 -54.582 -52.996)" fill="#FFF"/><use xlink:href="#c" transform="rotate(19.162 -31.382 84.446)" fill="#FFF"/><defs><path id="a" fill-rule="evenodd" d="M22.5 42C33.27 42 42 33.27 42 22.5S33.27 3 22.5 3 3 11.73 3 22.5 11.73 42 22.5 42zm0 3C34.926 45 45 34.926 45 22.5S34.926 0 22.5 0 0 10.074 0 22.5 10.074 45 22.5 45z"/><path id="b" fill-rule="evenodd" d="M6.7 6.969C3.565 6.08 1.218 3.547 0 1.579L2.55 0c1.004 1.621 2.825 3.475 4.968 4.082 1.939.55 4.557.191 7.606-3.457l2.302 1.924C13.81 6.877 10.038 7.915 6.7 6.97z"/><path id="c" fill-rule="evenodd" d="M7.211 3H0V0h7.211v3z"/></defs></svg>