<svg width="45" height="45" viewBox="0 0 45 45" version="1.1" xmlns="http://www.w3.org/2000/svg" xmlns:xlink="http://www.w3.org/1999/xlink">
<title>sad</title>
<desc>Created using Figma</desc>
<g id="Canvas" transform="translate(1807 -7650)">
<g id="sad">
<g id="face">
<use xlink:href="#path0_fill" transform="translate(-1807 7650)" fill="#FFFFFF"/>
</g>
<g id="mouth">
<use xlink:href="#path1_fill" transform="matrix(1 0 0 -1 -1793.28 7684.79)" fill="#FFFFFF"/>
</g>
<g id="eyes">
<g id="Line (Stroke)">
<use xlink:href="#path2_fill" transform="matrix(-0.944593 0.328244 0.328244 0.944593 -1786.58 7664.98)" fill="#FFFFFF"/>
</g>
<g id="Line (Stroke)">
<use xlink:href="#path2_fill" transform="matrix(0.944593 0.328244 -0.328244 0.944593 -1781.02 7664.98)" fill="#FFFFFF"/>
</g>
</g>
</g>
</g>
<defs>
<path id="path0_fill" fill-rule="evenodd" d="M 22.5 42C 33.2696 42 42 33.2696 42 22.5C 42 11.7304 33.2696 3 22.5 3C 11.7304 3 3 11.7304 3 22.5C 3 33.2696 11.7304 42 22.5 42ZM 22.5 45C 34.9264 45 45 34.9264 45 22.5C 45 10.0736 34.9264 0 22.5 0C 10.0736 0 0 10.0736 0 22.5C 0 34.9264 10.0736 45 22.5 45Z"/>
<path id="path1_fill" fill-rule="evenodd" d="M 6.69974 6.96861C 3.56471 6.08026 1.21849 3.54728 0 1.57922L 2.5507 0C 3.55443 1.6212 5.37488 3.47508 7.51763 4.08226C 9.45685 4.63176 12.0754 4.27319 15.1244 0.625252L 17.4263 2.54919C 13.8087 6.87738 10.0383 7.91464 6.69974 6.96861Z"/>
<path id="path2_fill" fill-rule="evenodd" d="M 7.2111 3L 0 3L 0 0L 7.2111 0L 7.2111 3Z"/>
</defs>
</svg>
